<?xml version="1.0" encoding="UTF-8"?>
<svg id="Layer_3" xmlns="http://www.w3.org/2000/svg" xmlns:xlink="http://www.w3.org/1999/xlink" version="1.1" viewBox="0 0 1219 443.1">
  <!-- Generator: Adobe Illustrator 29.3.0, SVG Export Plug-In . SVG Version: 2.1.0 Build 146)  -->
  <defs>
    <style>
      .st0 {
        fill: none;
      }

      .st1 {
        fill: #0a0a0a;
      }

      .st2 {
        fill: url(#linear-gradient);
      }

      .st3 {
        clip-path: url(#clippath);
      }
    </style>
    <clipPath id="clippath">
      <path class="st0" d="M335,145.1c-5.3-.9-10.6-1.2-15.8-1,20.5-40.5,4.4-90.1-36-110.8-40.5-20.7-90.3-4.7-111.1,35.8-2.5,4.8-4.4,9.8-5.8,14.8-15.5-15.5-36.1-24-58.1-24.1h-.2c-22,0-42.7,8.5-58.2,24.1-15.6,15.6-24.2,36.3-24.3,58.3,0,22,8.5,42.8,24.1,58.4,3.8,3.8,7.9,7.2,12.2,10.1-19.5,10-34,26.9-40.8,47.8-6.9,21-5.1,43.3,4.8,63,10,19.7,27,34.3,47.9,41.1,8.4,2.8,17.1,4.1,25.7,4.1,12.8,0,25.5-3,37.2-9,4.8-2.4,9.3-5.3,13.4-8.5,3.5,21.6,15.1,40.6,32.8,53.6,14.3,10.4,31.1,15.9,48.5,15.9s8.6-.3,12.9-1c45-7,75.8-49.3,68.8-94.3-.8-5.3-2.2-10.5-4-15.4,4.3.7,8.6,1,12.8,1,39.8,0,74.9-28.9,81.4-69.5,7.2-44.9-23.5-87.3-68.4-94.6ZM281.8,303.5c-5.9,2.3-12.7,4-20.7,5.3-3.7.6-7.5.9-11.4.9.6-3.2,1.5-6,2.8-8.6.5-1,1.1-2.1,1.8-3.2,1.2-1.8,2.8-3.7,5-6.1,1.8-1.9,3.6-3.7,5.4-5.5.2.1.4.3.6.4,2.7,2.5,5.5,4.9,8.5,7,3,2.9,5.7,6.2,8,9.8ZM152.9,311.5c-1.9,3.7-4.1,7.2-6.7,10.4-4-4.9-7.7-10.8-11.4-18.1-1.7-3.4-3.2-6.9-4.4-10.6,3.2-.4,6.2-.4,9,0,1.1.2,2.3.4,3.6.8,2.1.6,4.4,1.5,7.3,2.9,2.3,1.1,4.7,2.3,7,3.5,0,.2-.1.4-.2.5-1.6,3.4-3,7-4.2,10.6ZM86.7,198.5c3.4-5.3,7.9-10.7,13.6-16.4,2.7-2.7,5.6-5.1,8.7-7.5,1.4,3,2.3,5.8,2.8,8.6.2,1.1.3,2.3.4,3.6,0,2.2,0,4.7-.5,7.9-.3,2.6-.7,5.1-1.1,7.7-.2,0-.5,0-.7,0-3.7-.5-7.3-.7-11-.7-4.1-.6-8.2-1.7-12.2-3.2ZM244.3,254.7c-8.2-1.3-16.8-1.4-25.5,0-14.1,2.2-27,7.9-38,16.4-1.3-8.3-4-16.5-7.9-24.2-6.4-12.7-15.9-23.3-27.4-31,7.4-3.8,14.4-8.8,20.6-15,10.3-10.3,17.3-22.6,21-35.6,5.9,5.9,12.8,11,20.6,15,12,6.1,24.8,9.1,37.5,9.1s2,0,2.9-.1c-3.8,7.5-6.5,15.6-7.9,24.3-2.3,14.1-.9,28.2,3.9,41.2ZM218.2,160.2c-6.1-3.1-11.4-7.2-15.9-11.8,3.8-.8,7-1.6,9.9-2.7,2.3-.8,4.4-1.8,6.4-2.8,4.7-2.5,9.1-5.8,13.3-10,3,3.4,5.9,7.1,8.6,11,4.8,7,8.8,14.5,12.7,22.3-11.6,1.5-23.8-.3-35-6.1ZM208,123.1c-1,.5-2.1,1-3.3,1.5-2.1.7-4.5,1.4-7.6,2-2.5.5-5.1.9-7.6,1.3-.1-.3-.2-.6-.3-.9-.7-3.4-1.5-6.8-2.6-10.1-.7-4.2-1-8.5-.7-12.9,6.1,1.6,12.6,4.2,19.8,7.9,3.4,1.7,6.6,3.7,9.8,6-2.4,2.2-4.8,4-7.3,5.3ZM150.4,185c-4.9,4.8-10.3,8.6-16.2,11.5.5-3.9.6-7.2.5-10.3,0-2.4-.3-4.7-.7-7-1-5.3-2.7-10.5-5.4-15.8,4.2-1.8,8.5-3.4,13.2-4.8,8.2-2.4,16.5-3.9,25.1-5.1-2.2,11.5-7.7,22.5-16.6,31.4ZM152.9,257.1c3.1,6,5,12.4,5.9,19-3.6-1.6-6.7-2.8-9.6-3.7-2.3-.7-4.6-1.2-6.8-1.5-5.3-.7-10.8-.6-16.6.2-.4-4.5-.6-9.2-.5-14,.2-8.5,1.4-16.9,2.9-25.5,10.6,5.8,19.2,14.5,24.7,25.5ZM222.3,277c3.1-.5,6.2-.7,9.3-.7s7.1.3,10.5.9c-2.7,2.9-4.8,5.4-6.5,8-1.4,2-2.5,4-3.5,6-2.3,4.8-3.9,10.1-4.9,15.9-4.4-1-8.9-2.3-13.5-3.9-8-2.8-15.7-6.5-23.4-10.6,8.7-8.3,19.8-13.7,31.9-15.6ZM267.7,252.3c-5.2-10.9-7-23-5-35.2,1.1-6.8,3.3-13.1,6.3-18.8,1.9,3.4,3.7,6.2,5.6,8.6,1.5,1.9,3,3.6,4.7,5.2,3.9,3.7,8.3,6.9,13.6,9.6-2.3,3.9-4.9,7.8-7.9,11.6-5.2,6.8-11.1,12.9-17.3,19ZM304.9,190c-.6,3.7-1.5,7.4-2.6,11.2-2.9-1.6-5.3-3.3-7.3-5.3-.8-.8-1.6-1.7-2.4-2.7-1.3-1.7-2.7-3.8-4.2-6.7-1.2-2.3-2.4-4.6-3.6-6.9.3-.3.7-.5,1-.8,2.9-1.6,5.8-3.4,8.5-5.4,3.8-2,7.9-3.6,12.1-4.8.4,6.3-.1,13.3-1.4,21.3ZM245.6,46.8c9.2,0,18.5,2.1,27.2,6.6,29.4,15.1,41.1,51.3,26.1,80.7-4.2,8.2-10,15-16.9,20.3-2.5,1.4-5,2.9-7.3,4.6-4.5-9.4-9.4-18.8-15.6-27.8-12.3-17.7-26.8-31-43.4-39.5-8.8-4.5-16.9-7.7-24.8-9.8.4-.8.8-1.6,1.2-2.5,10.6-20.7,31.7-32.6,53.5-32.6ZM48,142.3c0-16,6.3-31.1,17.7-42.4,11.3-11.3,26.4-17.5,42.3-17.5h.1c16,0,31.1,6.3,42.4,17.7,6.5,6.5,11.2,14.2,14,22.3.6,2.8,1.2,5.6,2.1,8.4-10.3,1.4-20.8,3.1-31.3,6.3-20.7,6.2-37.8,15.9-50.9,29-7,7-12.6,13.7-16.9,20.5-.7-.6-1.3-1.2-2-1.9-11.3-11.4-17.5-26.4-17.5-42.5ZM45.9,311.4c-7.2-14.3-8.5-30.6-3.5-45.8,5-15.2,15.6-27.6,29.9-34.9,8-4.1,16.7-6.2,25.4-6.5,2.9.4,5.8.6,8.8.6-1.8,10.2-3.5,20.8-3.7,31.7-.5,21.6,3.5,40.9,11.9,57.4,4.5,8.9,9.2,16.2,14.3,22.5-.8.4-1.6.9-2.4,1.3-29.5,15-65.7,3.1-80.6-26.4ZM240.9,395.6c-15.8,2.5-31.7-1.4-44.6-10.8s-21.4-23.4-23.9-39.2c-1.4-8.8-.8-17.5,1.6-25.8,1.3-2.7,2.5-5.6,3.5-8.5,9.2,4.9,18.7,9.7,29,13.3,14.6,5.1,28.7,7.7,42.3,7.7s10.7-.4,16-1.2c9.8-1.5,18.3-3.7,25.8-6.7.2.9.3,1.8.5,2.7,5.1,32.7-17.3,63.4-50,68.5ZM381.2,236.1c-5.2,32.7-36.1,55-68.7,49.7h0c-8.9-1.4-17.1-4.7-24.3-9.6-2.2-2-4.4-4-6.8-5.7,7.5-7.2,15-14.8,21.6-23.5,13.1-17.1,21.2-35.1,24.2-53.4,1.6-9.8,2.1-18.5,1.6-26.6.9.1,1.8.2,2.7.4,32.7,5.2,55,36.1,49.7,68.7Z"/>
    </clipPath>
    <linearGradient id="linear-gradient" x1="350.5" y1="464.3" x2="71.9" y2="-18.2" gradientUnits="userSpaceOnUse">
      <stop offset=".2" stop-color="#de549f"/>
      <stop offset=".5" stop-color="#2179cc"/>
      <stop offset=".7" stop-color="#31b2b4"/>
      <stop offset=".9" stop-color="#08bdb4"/>
    </linearGradient>
  </defs>
  <g>
    <path class="st1" d="M723.9,314c-8.3,0-14.6-.5-18.9-1.6-3.2-.8-6.8-2.2-11-4.3,19.2-28.1,29-57.2,29-86.6s-13.1-69-38.9-95.6c-25.8-26.7-58.1-40.2-95.9-40.2s-70,13.2-95.8,39.3c-25.8,26-38.9,58.3-38.9,95.8s13.3,70.3,39.4,96.7c26.2,26.4,58.1,39.8,95,39.8s49-6.3,72.3-18.8c5.3,3.3,10,6,14,8,4.8,2.5,11.5,4.8,20.6,7.2,9,2.4,18.8,3.6,29.2,3.6h4.5v-43.3h-4.5ZM521,281.5c6.4-2.2,13.9-3.2,22.1-3.2,23.5,0,49.2,9.8,76.3,29-8.6,4.7-18.7,7-30.2,7s-27.8-3.3-40.3-9.9c-10.8-5.7-20.2-13.4-28-22.9ZM546.6,235.4c-17.3,0-32.4,2.1-44.9,6.4-1.4-6.8-2.1-13-2.1-18.6,0-26,8.8-48.5,26.1-66.9,17.2-18.3,38.6-27.6,63.3-27.6s45.3,9,62.4,27.6c17,18.4,25.6,40.4,25.6,65.3s-6.9,41.1-20.5,59.5c-38.1-30.3-75.1-45.6-109.9-45.6Z"/>
    <path class="st1" d="M881,260.1c0,18.8-4.1,33-12.2,42.1-8.1,9.1-18.8,13.5-32.8,13.5s-23.6-3.8-31.2-11.8c-7.5-7.8-11.4-22.3-11.4-42.8v-107.1h-44.6v107.1c0,35.4,8.9,61,26.5,76.2,15.1,13.2,34.3,19.9,57,19.9s24.8-2.4,35.3-7.1c6.5-2.9,12-6.5,16.5-10.8v13h41.6v-198.4h-44.6v106Z"/>
    <rect class="st1" x="955.8" y="90.5" width="44.6" height="42.3"/>
    <rect class="st1" x="955.8" y="154" width="44.6" height="198.4"/>
    <path class="st1" d="M1190.9,148.9c-6.6.2-15.3,2-26.7,5.3h0c-11.4,3.3-21.4,8-29.7,14-6.4,4.4-11.9,10.1-16.3,17-4.4,6.8-7.4,13.5-9,20-1.5,6.1-2.8,12.2-3.8,18.3-1.1,6.4-1.5,11.2-1.1,14.8.2,1.9.3,3,.3,3.5v.3c-.1,0-.1,110.5-.1,110.5h44.6v-108.1c0-22.2,6.2-36.9,18.4-43.5,8-4.2,15.9-6.3,23.5-6.3h11.1v-45.8l-11.2.2Z"/>
  </g>
  <rect class="st1" x="1030.6" y="90.5" width="44.6" height="261.9"/>
  <g class="st3">
    <rect class="st2" x="10.6" y="17.1" width="401.1" height="411.8"/>
  </g>
</svg>